<?xml version="1.0" standalone="no"?>
<!DOCTYPE svg PUBLIC "-//W3C//DTD SVG 20010904//EN"
 "http://www.w3.org/TR/2001/REC-SVG-20010904/DTD/svg10.dtd">
<svg version="1.0" xmlns="http://www.w3.org/2000/svg"
 width="1024.000000pt" height="1024.000000pt" viewBox="0 0 1024.000000 1024.000000"
 preserveAspectRatio="xMidYMid meet">

<g transform="translate(0.000000,1024.000000) scale(0.100000,-0.100000)"
fill="#000000" stroke="none">
<path d="M0 5120 l0 -5120 5120 0 5120 0 0 5120 0 5120 -5120 0 -5120 0 0
-5120z m6215 3870 c9 -14 90 -56 203 -105 52 -23 92 -45 90 -50 -7 -18 -686
-685 -697 -685 -17 0 -8 28 49 145 61 125 199 429 234 514 32 79 94 191 106
191 5 0 12 -5 15 -10z m-1215 -149 c47 -16 166 -55 265 -86 99 -32 184 -61
189 -65 12 -12 -5 -81 -91 -370 -14 -47 -40 -150 -58 -230 -19 -80 -44 -173
-57 -208 l-24 -62 -13 52 c-7 29 -25 91 -41 138 -15 47 -51 162 -80 255 -57
184 -180 572 -187 593 -7 17 1 16 97 -17z m-486 -531 c3 -3 6 -93 6 -200 l2
-195 -174 -6 c-95 -4 -353 -7 -572 -8 l-399 -1 7 188 c4 103 9 196 12 207 5
20 13 20 559 20 304 0 556 -2 559 -5z m-1330 -15 c3 -8 8 -98 12 -199 l7 -185
-24 -6 c-13 -3 -256 -7 -539 -8 l-515 -2 0 207 0 208 526 0 c458 0 528 -2 533
-15z m1693 -96 c18 -55 51 -139 73 -186 22 -47 38 -88 36 -90 -2 -2 -69 -7
-149 -10 l-146 -6 0 196 0 196 72 3 c40 2 74 2 76 0 3 -1 20 -48 38 -103z
m2623 -45 c288 -3 526 -7 528 -9 10 -9 -11 -336 -22 -351 -23 -31 -207 -43
-681 -44 l-440 -1 -3 198 c-1 109 0 204 3 211 4 11 16 13 48 8 23 -3 278 -9
567 -12z m1290 -28 c12 -25 50 -76 86 -114 35 -39 64 -75 64 -81 0 -12 -56
-42 -113 -60 -20 -7 -69 -30 -108 -52 -40 -21 -74 -39 -76 -39 -2 0 -19 -11
-36 -24 -85 -62 -374 -201 -602 -288 -71 -27 -177 -68 -235 -90 -141 -54 -286
-98 -325 -98 -19 0 -39 8 -49 19 -16 18 -16 21 13 54 31 35 189 110 341 162
172 59 478 199 546 251 18 13 42 44 54 69 25 52 88 110 174 162 34 20 102 67
151 105 50 37 91 68 92 68 0 0 11 -20 23 -44z m-2078 9 c9 -12 11 -397 2 -419
-5 -14 -53 -16 -438 -16 -237 0 -461 3 -498 7 l-68 6 0 87 0 88 37 7 c30 5 59
28 138 104 55 54 115 109 133 124 l33 27 327 -3 c204 -1 330 -6 334 -12z
m-1106 -8 c3 -3 0 -25 -8 -49 -14 -44 -45 -67 -110 -82 -24 -6 -28 -3 -28 17
0 13 7 47 16 76 l15 53 55 -4 c30 -3 57 -7 60 -11z m-1752 -577 c-4 -113 -8
-207 -10 -208 -1 -2 -250 -6 -552 -8 l-550 -5 6 203 c2 112 7 205 9 208 7 8
427 16 786 15 l318 0 -7 -205z m1242 198 c3 -4 11 -72 16 -150 6 -79 16 -158
24 -177 8 -18 11 -37 8 -42 -3 -5 -243 -9 -556 -9 l-551 0 7 38 c3 20 6 108 6
196 l0 158 519 -3 c286 -3 523 -7 527 -11z m-2515 -197 c-1 -106 -5 -199 -7
-206 -8 -21 -111 -28 -293 -20 l-166 7 0 202 0 201 200 6 c110 3 215 5 234 5
l34 -1 -2 -194z m4323 -180 c-3 -16 -1 -84 5 -152 6 -68 13 -171 16 -229 l7
-105 -372 -1 c-204 -1 -372 -3 -375 -5 -8 -9 -10 -1277 -2 -1286 5 -4 120 -8
257 -8 l248 0 -6 -35 c-15 -87 -18 -84 90 -94 54 -4 104 -6 113 -3 11 5 15 22
15 72 l0 65 55 0 55 0 1 -95 c1 -52 2 -146 3 -207 l1 -113 -55 3 c-30 2 -59 8
-64 12 -4 5 -7 40 -4 79 l4 71 -86 1 c-47 0 -95 2 -107 5 -22 4 -23 1 -24 -66
-1 -39 -3 -74 -4 -80 -1 -5 -3 -35 -4 -65 l-1 -55 -197 0 c-109 0 -222 -3
-250 -6 l-53 -7 0 -207 c0 -114 -3 -348 -7 -521 l-6 -315 -146 4 c-200 5 -243
14 -281 60 -61 74 -64 99 -57 474 3 185 3 380 0 432 -6 90 -7 94 -27 88 -12
-4 -153 -7 -314 -7 l-294 0 -22 70 c-29 93 -179 316 -308 462 -45 51 -56 68
-49 82 5 9 63 93 128 187 65 93 162 232 216 309 53 77 129 176 168 220 40 44
130 157 200 251 71 95 140 181 154 192 19 15 22 22 13 29 -7 4 -165 6 -350 4
l-338 -3 0 118 c0 66 3 135 6 155 l6 36 47 -8 c136 -23 299 4 340 57 26 33 34
74 22 106 -8 21 -7 28 5 32 9 3 156 7 327 7 172 1 476 5 677 8 201 4 425 8
497 9 l133 2 -6 -29z m434 -42 c43 -78 113 -179 131 -188 11 -6 36 -11 57 -11
57 0 350 75 444 114 47 20 90 36 95 36 11 0 9 -229 -1 -240 -3 -3 -204 -6
-447 -6 l-442 -2 -27 26 c-34 31 -45 65 -53 162 l-7 75 109 32 c59 17 112 32
116 32 4 1 16 -13 25 -30z m-4133 -368 l0 -224 -215 6 c-118 4 -363 7 -544 7
l-328 0 7 208 c4 114 9 209 12 212 6 7 472 16 798 15 l270 0 0 -224z m930 125
c76 -10 198 -53 271 -97 74 -44 210 -179 251 -249 17 -30 48 -109 68 -175 66
-219 59 -412 -20 -569 -49 -97 -156 -235 -216 -276 -27 -19 -62 -45 -77 -56
l-26 -21 74 -35 c82 -39 113 -67 211 -198 35 -47 82 -106 105 -131 92 -101
129 -236 121 -449 -8 -214 -46 -331 -158 -486 -107 -147 -221 -231 -389 -286
-88 -28 -110 -31 -295 -39 -110 -4 -316 -8 -457 -8 l-258 -1 0 207 0 206 -53
54 -54 53 -181 0 -182 0 0 158 c0 86 5 164 10 172 8 12 40 15 186 15 133 0
178 -3 181 -12 7 -20 27 -15 52 10 30 33 38 97 40 332 0 110 4 228 7 262 l6
61 -43 47 c-55 59 -86 75 -147 75 -49 0 -50 0 -57 37 -3 20 -5 120 -4 223 3
207 4 204 -70 274 -26 25 -42 30 -91 34 l-60 4 0 171 0 170 240 -5 c172 -4
242 -2 248 6 5 6 12 72 16 146 3 74 12 162 21 195 8 33 15 87 15 121 0 33 2
63 4 65 8 7 649 3 711 -5z m3957 -211 c0 -5 -3 -107 -7 -226 l-7 -216 -222 -7
c-121 -3 -250 -7 -286 -8 l-65 -2 -3 140 c-2 76 0 181 3 231 l7 93 266 3 c331
3 312 4 314 -8z m-886 -122 c-3 -38 -8 -125 -12 -195 l-6 -126 -35 -7 c-19 -3
-37 -4 -40 -1 -3 2 -7 41 -10 85 l-6 81 -94 0 c-69 0 -93 -3 -92 -12 1 -7 1
-46 0 -85 l-1 -73 -51 0 -52 0 6 63 c3 34 3 117 -1 184 l-7 122 35 6 c70 10
75 5 72 -63 l-4 -62 102 0 101 0 -6 58 c-4 31 -9 65 -11 75 -5 15 2 17 56 17
l61 0 -5 -67z m-505 10 c5 -15 9 -36 7 -47 -3 -19 -9 -21 -70 -19 l-68 1 0
-139 0 -139 -51 0 -52 0 5 123 c3 67 3 128 1 135 -3 8 -26 12 -69 12 l-64 0 0
48 0 49 175 1 176 2 10 -27z m-4204 -156 c4 -6 7 -88 8 -181 1 -116 5 -179 14
-194 7 -13 11 -25 9 -27 -2 -2 -94 -5 -206 -7 l-202 -3 0 207 c0 156 3 208 13
211 26 11 357 5 364 -6z m-1115 -348 c116 -39 319 -125 337 -143 12 -13 9 -15
-20 -20 -19 -3 -83 -7 -144 -10 -60 -4 -149 -11 -198 -17 -66 -9 -94 -9 -114
0 -25 11 -25 13 -18 94 3 45 8 94 11 109 6 33 10 32 146 -13z m6592 -41 c3
-29 0 -125 -7 -213 -8 -87 -12 -167 -9 -177 4 -17 -19 -18 -489 -16 -272 1
-519 -2 -549 -6 l-56 -8 4 139 c2 76 7 179 10 228 l7 90 493 1 c271 0 495 4
499 7 3 4 25 7 49 7 l42 0 6 -52z m-5060 -280 c3 -73 7 -168 9 -210 l2 -76
-245 -4 c-135 -2 -253 -1 -263 2 -13 4 0 16 50 45 38 22 91 60 118 85 28 25
66 58 87 73 47 37 54 55 27 83 -31 33 -87 37 -338 19 -124 -8 -228 -15 -233
-15 -4 0 -8 24 -8 54 l0 54 253 8 c138 5 316 11 393 12 l142 3 6 -133z m-444
-78 c0 -14 -98 -75 -178 -112 -37 -16 -152 -65 -257 -108 -104 -43 -255 -108
-335 -145 -80 -36 -183 -84 -230 -105 -47 -22 -123 -53 -170 -70 -77 -28 -86
-29 -95 -14 -5 8 -36 57 -69 107 -62 97 -119 198 -114 202 2 1 46 9 98 18 296
50 470 82 680 126 129 27 278 55 330 61 53 6 136 19 185 30 102 21 155 25 155
10z m6108 -46 l72 -6 0 -81 c0 -45 -4 -88 -8 -95 -6 -9 -29 -3 -93 27 -46 22
-110 48 -141 58 l-58 18 0 46 0 46 78 -4 c42 -2 110 -6 150 -9z m-693 -171
l210 -6 -5 -116 -5 -116 -30 4 c-16 1 -79 21 -140 43 -287 104 -360 128 -391
128 -19 0 -34 4 -34 9 0 5 -3 23 -7 41 l-6 33 99 -7 c54 -3 194 -9 309 -13z
m-4712 -355 c3 -117 5 -212 4 -213 -1 0 -239 1 -528 3 l-527 3 4 207 c1 114 3
208 3 209 1 1 234 2 519 2 l519 0 6 -211z m4434 121 c48 -23 212 -85 363 -139
151 -53 379 -140 505 -192 127 -53 287 -119 358 -148 70 -29 127 -55 127 -59
-1 -3 -68 -76 -149 -161 l-148 -154 -47 24 c-26 14 -84 51 -129 82 -45 31
-122 83 -170 115 -214 141 -296 196 -522 351 -132 92 -268 193 -303 226 l-63
61 21 17 c33 26 58 22 157 -23z m101 -422 c48 -40 134 -108 190 -151 110 -83
132 -113 132 -181 l0 -35 -580 0 -580 0 2 208 3 207 359 7 c197 4 361 10 364
13 11 11 25 3 110 -68z m-5120 -87 c2 -19 1 -113 -3 -207 l-7 -173 -240 0
-241 0 7 61 c3 34 6 129 6 211 l0 148 238 -2 237 -3 3 -35z m2784 -405 c11
-27 38 -93 60 -145 50 -117 149 -393 142 -399 -2 -2 -43 8 -92 23 -48 15 -109
34 -136 42 -27 9 -61 12 -77 9 -22 -5 -31 -2 -35 10 -6 15 16 177 52 383 26
144 51 167 86 77z m1978 -250 l0 -225 -525 0 -525 0 0 220 0 220 378 3 c207 1
443 3 525 5 l147 2 0 -225z m685 219 l51 -6 -3 -211 c-2 -116 -4 -212 -6 -213
-1 -1 -127 -4 -279 -6 -304 -3 -286 -7 -283 57 1 17 2 110 3 208 l2 177 233 0
c127 0 255 -3 282 -6z m-4887 -277 c2 -153 0 -198 -10 -202 -7 -2 -239 -5
-515 -7 l-503 -4 0 203 0 202 73 4 c39 2 270 3 512 3 l440 -1 3 -198z m1857
-257 c10 -23 35 -56 55 -74 36 -33 60 -43 146 -65 l42 -11 -49 -98 c-53 -105
-109 -271 -140 -415 -11 -50 -22 -93 -23 -95 -7 -6 -352 131 -389 155 l-38 24
35 47 c130 173 287 442 320 550 10 32 21 27 41 -18z m1698 -491 c-5 -4 -109
-11 -233 -17 -222 -9 -225 -9 -240 12 -8 11 -57 75 -107 143 -98 129 -149 208
-159 247 -5 21 -2 24 42 30 26 3 119 7 208 7 89 1 235 5 326 8 l165 6 3 -214
c1 -118 -1 -218 -5 -222z m974 431 l383 0 0 -215 0 -215 -592 0 -593 0 0 212
0 213 60 6 c33 4 127 5 209 3 82 -2 322 -4 533 -4z m-2927 -19 c0 -5 -43 -80
-96 -167 -53 -88 -106 -175 -117 -194 -44 -75 -18 -70 -340 -70 l-290 0 7 61
c3 34 6 131 6 215 l0 154 323 3 c177 1 364 3 415 5 50 1 92 -2 92 -7z m1147
-40 c9 -14 54 -98 99 -186 97 -190 157 -300 249 -455 93 -156 128 -226 120
-239 -3 -6 -23 -11 -43 -11 -37 0 -152 -16 -184 -26 -13 -4 -20 12 -38 93 -45
197 -144 516 -233 753 -13 36 -27 77 -31 92 -6 27 -5 27 19 16 13 -6 32 -23
42 -37z m-3377 -165 c0 -107 -3 -201 -6 -210 -5 -14 -33 -16 -205 -16 l-199 0
0 210 0 210 205 0 205 0 0 -194z m1224 163 c9 -48 7 -377 -3 -383 -5 -3 -242
-6 -527 -6 l-519 -1 -3 211 -2 210 524 0 523 0 7 -31z m1956 -137 c0 -35 9
-99 20 -143 12 -44 18 -84 15 -89 -4 -6 -97 -10 -227 -10 l-220 0 6 28 c3 15
23 84 43 154 l36 127 163 -2 164 -2 0 -63z m-4016 -39 c3 -21 9 -47 12 -59 5
-17 -2 -23 -43 -39 -26 -9 -81 -35 -121 -56 -41 -22 -77 -39 -81 -39 -5 0 -11
19 -14 43 -3 23 -9 60 -12 82 l-7 41 36 2 c20 2 73 16 119 31 45 16 87 29 93
30 6 1 14 -16 18 -36z m140 -345 c-40 -69 -94 -140 -174 -228 -160 -178 -379
-411 -386 -411 -3 -1 -55 55 -114 122 l-109 123 62 34 c34 19 204 106 377 194
173 88 319 164 325 169 13 13 27 11 19 -3z m5297 -48 c3 -25 9 -123 13 -217
l7 -173 -358 0 c-309 1 -354 3 -327 14 31 14 44 33 44 64 0 9 -34 85 -75 169
-41 85 -75 158 -75 163 0 5 10 12 23 15 29 7 235 11 517 10 l225 0 6 -45z
m739 40 l225 0 3 -203 c1 -111 -2 -208 -6 -216 -13 -18 -792 -17 -804 2 -7 12
-4 171 8 346 l6 84 172 -6 c94 -4 272 -7 396 -7z m-4740 -167 c0 -93 -3 -192
-6 -220 l-7 -53 -493 0 -494 0 0 113 c0 63 -3 162 -7 220 l-6 107 506 0 507 0
0 -167z m1190 -54 l0 -219 -520 0 -520 0 6 208 c3 114 7 212 9 218 2 7 167 10
514 11 l511 2 0 -220z m1500 220 c0 -14 71 -342 82 -376 6 -23 10 -45 7 -47
-3 -3 -133 -6 -290 -6 l-284 -1 -12 108 c-11 107 -17 306 -9 314 5 5 506 13
506 8z m-1176 -180 c28 -11 104 -33 168 -49 118 -29 163 -47 207 -81 13 -11
37 -19 53 -19 23 0 32 7 43 33 11 25 14 27 15 11 0 -12 3 -48 6 -80 l6 -59
-283 -4 c-156 -1 -306 -4 -334 -5 l-50 -1 0 135 c0 78 4 138 10 143 15 12 100
-1 159 -24z m2214 -804 l22 5 0 -198 0 -199 41 -6 c57 -7 68 -22 60 -77 -6
-45 -6 -45 -48 -48 -43 -3 -43 -3 -45 -45 -1 -23 0 -61 1 -84 3 -41 1 -43 -26
-43 -15 0 -52 -3 -81 -7 l-53 -6 3 93 3 93 -137 -5 -137 -5 -12 66 c-13 75 -6
99 49 163 16 18 57 74 92 123 35 50 81 113 101 141 l38 51 53 -8 c29 -5 63 -7
76 -4z m-4343 -24 c93 -41 153 -127 140 -201 -6 -37 -25 -62 -80 -105 -11 -9
-15 -18 -10 -21 96 -42 134 -116 104 -205 -15 -44 -43 -75 -99 -107 -44 -26
-49 -27 -250 -30 l-205 -4 -2 343 c-1 188 -1 345 1 348 2 3 84 5 183 3 144 -3
186 -7 218 -21z m511 16 c134 -3 156 -11 226 -84 46 -48 68 -99 68 -160 -1
-81 -36 -139 -119 -193 l-24 -16 22 -41 c11 -23 43 -71 71 -108 27 -36 50 -70
50 -76 0 -5 -36 -9 -80 -9 -44 0 -83 -1 -87 -2 -5 -1 -35 47 -68 105 l-60 107
-54 0 c-45 0 -52 -2 -47 -16 4 -10 3 -57 0 -106 l-7 -89 -76 3 -76 3 -3 295
c-2 162 0 318 3 345 l6 51 67 -3 c37 -1 121 -4 188 -6z m864 -26 c0 -16 -3
-49 -6 -74 l-7 -47 -156 -2 -156 -3 -3 -64 -3 -64 139 6 140 7 6 -31 c3 -18 6
-49 6 -70 l0 -39 -143 0 -143 0 0 -60 1 -60 167 0 c107 0 169 -4 173 -11 4 -5
4 -41 0 -80 l-7 -69 -251 0 -250 0 6 197 c4 108 7 263 7 344 l0 149 233 2
c127 2 235 2 240 0 4 -2 7 -16 7 -31z m470 25 c0 -8 35 -86 79 -173 43 -87 99
-207 124 -268 25 -60 59 -135 76 -165 17 -30 31 -61 31 -67 0 -10 -26 -13 -95
-13 -68 0 -97 4 -99 13 -2 6 -11 33 -21 60 l-17 47 -147 0 -148 0 -20 -52
c-18 -48 -24 -53 -59 -61 -21 -4 -59 -7 -84 -5 -39 3 -45 6 -42 23 2 11 65
151 141 310 76 160 144 307 152 328 13 37 13 37 71 37 44 0 58 -4 58 -14z
m914 -69 c-96 -100 -214 -235 -214 -246 0 -8 140 -188 218 -280 28 -34 52 -66
52 -71 0 -4 -30 -11 -67 -15 -38 -3 -84 -8 -104 -11 -34 -5 -38 -3 -62 39 -32
53 -146 209 -161 219 -6 4 -21 -2 -33 -14 -21 -20 -23 -30 -23 -130 l0 -109
-82 3 -83 3 3 280 c1 154 5 308 8 343 l6 62 78 0 78 0 -5 -59 c-7 -69 5 -211
17 -211 8 0 151 161 215 242 l30 38 104 0 105 0 -80 -83z m2196 4 l0 -80 -106
6 -106 6 2 -239 c1 -131 1 -256 1 -277 l-1 -38 -85 3 c-71 3 -84 5 -79 18 3 8
10 123 15 255 5 132 11 249 13 259 5 18 0 19 -90 13 l-94 -6 0 52 c0 105 -23
96 264 100 138 1 254 3 259 5 4 1 7 -34 7 -77z m220 -72 l0 -139 131 0 130 0
-3 139 -3 140 78 3 77 3 -1 -348 -1 -348 -76 3 -77 3 1 133 0 132 -36 0 c-21
0 -78 3 -128 6 l-92 7 0 -142 0 -141 -80 0 -79 0 -3 345 -3 344 75 3 c41 2 78
2 83 0 4 -2 7 -66 7 -143z m-1602 11 c9 0 12 -39 12 -159 0 -88 -3 -166 -6
-175 -4 -9 -18 -16 -35 -16 -28 0 -28 1 -31 63 l-3 62 -84 2 -84 1 6 -59 c5
-56 4 -59 -18 -65 -59 -15 -60 -14 -63 169 l-2 167 40 0 40 0 0 -70 0 -70 79
0 80 0 7 81 c6 76 8 80 28 75 11 -3 27 -6 34 -6z m-380 -43 l3 -37 -60 0 -61
0 0 -130 0 -130 -42 0 -41 0 6 130 6 130 -65 0 -64 0 0 39 0 39 158 -2 157 -3
3 -36z m710 6 l-3 -38 -82 3 -83 3 0 -40 0 -41 64 0 c72 0 92 -14 82 -55 -6
-25 -8 -25 -71 -19 l-65 7 0 -30 c0 -36 16 -43 96 -43 59 0 63 -2 56 -36 l-4
-25 -112 3 -111 3 -3 160 c-1 87 -1 164 2 170 2 6 52 11 120 13 l117 3 -3 -38z
m-260 -409 c127 -4 232 -10 232 -13 0 -16 -108 -42 -192 -47 -51 -2 -255 -1
-453 3 l-360 8 -3 22 c-2 16 3 24 20 28 62 14 227 14 756 -1z"/>
<path d="M5568 6863 c7 -3 16 -2 19 1 4 3 -2 6 -13 5 -11 0 -14 -3 -6 -6z"/>
<path d="M5615 6210 c-28 -36 -66 -87 -85 -115 -19 -27 -65 -88 -103 -135 -87
-108 -247 -346 -247 -367 0 -15 23 -16 240 -10 132 3 244 8 250 12 11 7 13
546 2 630 l-7 49 -50 -64z"/>
<path d="M3470 6571 l-35 -6 -3 -362 -2 -363 255 0 c311 0 329 5 435 109 91
90 113 148 108 281 -5 119 -36 188 -116 261 -85 78 -136 89 -396 88 -116 -1
-227 -4 -246 -8z"/>
<path d="M3437 5314 c-4 -4 -7 -182 -7 -396 l0 -389 308 3 c297 3 309 4 367
27 76 30 175 128 214 210 23 49 26 68 26 161 0 94 -3 111 -28 161 -43 88 -98
143 -185 186 l-76 38 -306 3 c-168 2 -309 0 -313 -4z"/>
<path d="M6659 2029 c-63 -67 -94 -114 -81 -123 4 -2 41 -6 82 -7 l75 -2 -4
94 c-1 52 -5 96 -7 98 -3 3 -32 -24 -65 -60z"/>
<path d="M2260 2075 l0 -65 90 0 c77 0 93 3 110 20 26 26 25 51 -1 84 -19 25
-25 26 -110 26 l-89 0 0 -65z"/>
<path d="M2260 1814 l0 -66 101 4 c91 3 103 6 120 27 23 28 24 49 3 79 -14 20
-23 22 -120 22 l-104 0 0 -66z"/>
<path d="M2910 2039 l0 -101 96 4 c87 4 98 6 115 29 23 29 24 87 3 117 -26 37
-67 52 -144 52 l-70 0 0 -101z"/>
<path d="M4287 2063 c-4 -3 -7 -13 -7 -21 0 -8 -18 -53 -40 -100 -22 -47 -38
-87 -35 -90 3 -3 41 -6 85 -8 79 -2 80 -1 80 23 0 19 -63 189 -74 201 -2 1 -6
-1 -9 -5z"/>
</g>
</svg>
