<svg fill="#000000" height="200px" width="200px" version="1.1" id="Capa_1" xmlns="http://www.w3.org/2000/svg" xmlns:xlink="http://www.w3.org/1999/xlink" viewBox="0 0 416 416" xml:space="preserve"><g id="SVGRepo_bgCarrier" stroke-width="0"></g><g id="SVGRepo_tracerCarrier" strokeLinecap="round" stroke-linejoin="round"></g><g id="SVGRepo_iconCarrier"> <path d="M408.167,352.197V119.764c4.341-0.089,7.833-3.629,7.833-7.992c0-4.418-3.582-8-8-8h-7.833H375.75v-32c0-4.418-3.582-8-8-8 H250.241C238.955,53.849,224.174,47.811,208,47.811s-30.955,6.038-42.241,15.961H48.25c-4.418,0-8,3.582-8,8v32H15.833H8 c-4.418,0-8,3.582-8,8c0,4.362,3.493,7.902,7.833,7.992v232.433C3.493,352.287,0,355.827,0,360.189c0,4.418,3.582,8,8,8h400 c4.418,0,8-3.582,8-8C416,355.827,412.507,352.287,408.167,352.197z M328,352.189h-47.667v-136.75 c0-13.142,10.691-23.833,23.833-23.833S328,202.297,328,215.439V352.189z M304.167,175.606c-21.964,0-39.833,17.869-39.833,39.833 v136.75h-16.5v-136.75c0-21.964-17.869-39.833-39.833-39.833s-39.833,17.869-39.833,39.833v136.75h-16.5v-136.75 c0-21.964-17.869-39.833-39.833-39.833C89.869,175.606,72,193.475,72,215.439v136.75H23.833v-200.75h368.333v200.75H344v-136.75 C344,193.475,326.131,175.606,304.167,175.606z M231.833,352.189h-47.667v-136.75c0-13.142,10.692-23.833,23.833-23.833 s23.833,10.691,23.833,23.833V352.189z M135.667,352.189H88v-136.75c0-13.142,10.692-23.833,23.833-23.833 s23.833,10.691,23.833,23.833V352.189z M359.75,103.772h-88.224c-1.097-8.654-3.922-16.772-8.126-24h96.35V103.772z M255.36,103.772 h-94.72c3.861-22.656,23.621-39.961,47.36-39.961S251.499,81.117,255.36,103.772z M56.25,79.772h96.35 c-4.204,7.228-7.029,15.346-8.126,24H56.25V79.772z M150.786,119.772c0.379,0.055,0.764,0.093,1.158,0.093s0.779-0.038,1.158-0.093 h109.794c0.379,0.055,0.764,0.093,1.158,0.093s0.779-0.038,1.158-0.093h126.953v15.667H23.833v-15.667H150.786z"></path> </g></svg>